
<svg width="14px" height="14px" viewBox="0 0 14 14" version="1.1" xmlns="http://www.w3.org/2000/svg" xmlns:xlink="http://www.w3.org/1999/xlink">
    <!-- Generator: Sketch 48 (47235) - http://www.bohemiancoding.com/sketch -->
    <title>Group 3</title>
    <desc>Created with Sketch.</desc>
    <defs></defs>
    <g id="Symbols" stroke="none" stroke-width="1" fill="none" fill-rule="evenodd">
        <g id="Group-3" fill-rule="nonzero" stroke="#498200">
            <path d="M11.8970337,10.3983154 C11.5780764,11.5948252 11.0426963,12.2759776 10.2908936,12.4417725 C8.51249186,12.6744385 6.58219401,12.3605143 4.5,11.5 C4.46300728,11.4847119 1.5,11.5694218 1.5,11.4818115 L1.5,6.69999981 C1.50559801,6.55786787 1.55690002,6.5 1.69692993,6.5 C2.51206361,6.49346924 3.05447287,6.49020386 3.32415771,6.49020386 C3.97991943,6.49020386 6.90128971,3.43800584 8,1 C8,1 8,1 8,1 L8,1 C8.20583712,0.543253478 8.74296729,0.33985122 9.19971381,0.545688342 C9.61148551,0.731257136 9.8240124,1.19148427 9.698254,1.62527746 C9.50778781,2.28219725 9.3159063,2.83503747 9.12258875,3.28379209 C8.50717824,4.71236546 8.42589961,4.80915516 8.68838501,5.22668457 C8.7894528,5.3865081 9.05980468,5.5 9.25466919,5.5 L11.6101336,5.79029913 C12.1303908,5.85442292 12.5128411,6.30939871 12.4865669,6.83293385 C12.4307459,7.94521683 12.2342348,9.13367735 11.8970337,10.3983154 Z" id="Shape"></path>
        </g>
    </g>
</svg>